<svg width="74" height="74" viewBox="0 0 74 74" fill="none" xmlns="http://www.w3.org/2000/svg">
<path d="M66.5798 40.7752C65.8236 40.1924 64.9567 39.7696 64.0318 39.5326C63.107 39.2955 62.1436 39.2492 61.2003 39.3964C66.6289 33.9157 69.375 28.4669 69.375 23.125C69.375 15.4735 63.2209 9.25003 55.6561 9.25003C53.6489 9.23742 51.6632 9.66432 49.8385 10.5008C48.0138 11.3372 46.3943 12.5629 45.0938 14.0918C43.7932 12.5629 42.1737 11.3372 40.349 10.5008C38.5243 9.66432 36.5386 9.23742 34.5314 9.25003C26.9666 9.25003 20.8125 15.4735 20.8125 23.125C20.8125 26.3047 21.7491 29.3948 23.7205 32.6641C22.1059 33.0731 20.6324 33.9123 19.4568 35.0922L12.9182 41.625H4.625C3.39837 41.625 2.22199 42.1123 1.35463 42.9797C0.487275 43.847 0 45.0234 0 46.25L0 57.8125C0 59.0392 0.487275 60.2155 1.35463 61.0829C2.22199 61.9502 3.39837 62.4375 4.625 62.4375H34.6875C34.8766 62.4376 35.0649 62.4143 35.2483 62.3681L53.7483 57.7431C53.8662 57.7151 53.9813 57.6764 54.0923 57.6275L65.3281 52.8464L65.4553 52.7886C66.5352 52.249 67.4599 51.4434 68.1423 50.4477C68.8248 49.4519 69.2425 48.2989 69.3561 47.0971C69.4698 45.8953 69.2756 44.6843 68.7919 43.5783C68.3082 42.4723 67.5509 41.5076 66.5913 40.7752H66.5798ZM34.5314 13.875C36.3225 13.8488 38.0807 14.3574 39.5811 15.3358C41.0816 16.3141 42.2562 17.7178 42.9547 19.3672C43.1289 19.7914 43.4253 20.1541 43.8062 20.4094C44.187 20.6647 44.6352 20.801 45.0938 20.801C45.5523 20.801 46.0005 20.6647 46.3813 20.4094C46.7622 20.1541 47.0586 19.7914 47.2328 19.3672C47.9313 17.7178 49.1059 16.3141 50.6064 15.3358C52.1068 14.3574 53.865 13.8488 55.6561 13.875C60.5846 13.875 64.75 18.1098 64.75 23.125C64.75 28.7646 60.1857 35.1442 51.5514 41.5961L48.3457 42.3332C48.6271 41.1446 48.6358 39.9077 48.3711 38.7152C48.1065 37.5227 47.5753 36.4056 46.8176 35.4476C46.0598 34.4895 45.0949 33.7155 43.9954 33.1834C42.8959 32.6512 41.6902 32.3749 40.4688 32.375H29.1028C26.6082 29.0103 25.4375 26.0503 25.4375 23.125C25.4375 18.1098 29.6029 13.875 34.5314 13.875ZM4.625 46.25H11.5625V57.8125H4.625V46.25ZM63.429 48.6232L52.4446 53.3003L34.3984 57.8125H16.1875V44.8943L22.729 38.3557C23.1569 37.9244 23.6663 37.5824 24.2275 37.3497C24.7888 37.1169 25.3907 36.9981 25.9983 37H40.4688C41.3887 37 42.271 37.3655 42.9215 38.016C43.572 38.6665 43.9375 39.5488 43.9375 40.4688C43.9375 41.3887 43.572 42.271 42.9215 42.9216C42.271 43.5721 41.3887 43.9375 40.4688 43.9375H32.375C31.7617 43.9375 31.1735 44.1812 30.7398 44.6148C30.3061 45.0485 30.0625 45.6367 30.0625 46.25C30.0625 46.8633 30.3061 47.4515 30.7398 47.8852C31.1735 48.3189 31.7617 48.5625 32.375 48.5625H41.625C41.7991 48.562 41.9725 48.5427 42.1424 48.5047L61.5096 44.0503L61.5992 44.0271C62.1904 43.863 62.8215 43.9233 63.3709 44.1965C63.9203 44.4696 64.3493 44.9363 64.5753 45.5068C64.8014 46.0772 64.8084 46.7111 64.5952 47.2864C64.382 47.8617 63.9635 48.3379 63.4203 48.6232H63.429Z" fill="#E0D1BB"/>
</svg>
